<svg width="201" height="34" viewBox="0 0 201 34" fill="none" xmlns="http://www.w3.org/2000/svg">
<path d="M27.3629 32.396L21.734 32.38L17.1069 14.9072H17.0078L12.3072 32.3559L6.64166 32.3398L0 6.51617L6.13161 6.53223L9.82672 23.7119H9.92579L14.1603 6.5523L20.0901 6.56836L24.2842 23.748H24.3833L28.2179 6.58843L34.1476 6.60449L27.3629 32.396Z" fill="white"/>
<path d="M50.8506 32.456L49.0269 27.3852L39.8974 27.3612L38.1544 32.4239L31.9568 32.4078L41.9046 6.6244L47.4344 6.64046L57.1767 32.4721L50.8506 32.456ZM44.5576 13.5219L41.5413 22.3707L47.4711 22.3867L44.5576 13.5219Z" fill="white"/>
<path d="M72.6253 6.70128L54.935 6.65712L54.924 11.9808L61.584 11.9969L61.5436 32.4846L67.2422 32.4967L67.2826 12.0089L73.9463 12.025L79.2779 12.041L79.2339 32.5248L84.9325 32.5408L84.9729 12.0531L91.6366 12.0691L91.6476 6.74947L72.6253 6.70128Z" fill="white"/>
<path d="M95.8565 32.5687L95.9079 6.76118L101.639 6.77723L101.588 32.5847L95.8565 32.5687Z" fill="white"/>
<path d="M123.344 32.1792C121.811 32.9421 120.046 33.3194 118.046 33.3154C116.226 33.3114 114.541 32.9782 113 32.3197C111.456 31.6613 110.124 30.7258 108.99 29.5214C107.859 28.3169 106.975 26.8756 106.333 25.1934C105.691 23.5151 105.375 21.6683 105.379 19.6488C105.383 17.5811 105.713 15.7142 106.373 14.036C107.03 12.3618 107.94 10.9365 109.096 9.76018C110.252 8.58383 111.61 7.68047 113.165 7.05415C114.721 6.42783 116.398 6.11468 118.2 6.11869C119.866 6.12271 121.502 6.44791 123.113 7.0943C124.724 7.74471 126.027 8.68821 127.021 9.9288L123.146 14.1484C122.614 13.3455 121.917 12.7472 121.051 12.3538C120.185 11.9643 119.297 11.7676 118.387 11.7636C117.389 11.7596 116.472 11.9603 115.639 12.3578C114.806 12.7553 114.086 13.3093 113.488 14.0119C112.887 14.7145 112.421 15.5456 112.083 16.5052C111.745 17.4647 111.58 18.5166 111.577 19.6568C111.573 20.8212 111.738 21.8931 112.068 22.8647C112.399 23.8403 112.857 24.6714 113.444 25.366C114.031 26.0606 114.736 26.6026 115.558 26.992C116.38 27.3815 117.279 27.5822 118.255 27.5822C119.389 27.5862 120.376 27.3453 121.223 26.8595C122.067 26.3737 122.746 25.7474 123.26 24.9685L127.216 29.0597C126.17 30.3806 124.878 31.4164 123.344 32.1792Z" fill="white"/>
<path d="M154.255 19.697C154.252 21.7405 153.925 23.6034 153.279 25.2896C152.63 26.9759 151.734 28.4212 150.589 29.6217C149.445 30.8221 148.08 31.7495 146.502 32.3999C144.924 33.0503 143.21 33.3755 141.368 33.3715C139.522 33.3675 137.82 33.0343 136.257 32.3758C134.69 31.7174 133.34 30.7819 132.198 29.5775C131.057 28.373 130.165 26.9237 129.523 25.2334C128.881 23.5432 128.566 21.6763 128.569 19.6367C128.573 17.5731 128.9 15.7062 129.545 14.044C130.191 12.3819 131.09 10.9687 132.235 9.80437C133.38 8.64006 134.738 7.74475 136.304 7.11442C137.871 6.4881 139.578 6.17495 141.42 6.17896C143.262 6.18298 144.972 6.50417 146.549 7.13852C148.124 7.77688 149.485 8.6762 150.626 9.84854C151.767 11.0169 152.659 12.4341 153.301 14.1003C153.94 15.7664 154.259 17.6333 154.255 19.697ZM148.157 19.6809C148.16 18.5648 147.995 17.5169 147.661 16.5453C147.331 15.5697 146.872 14.7386 146.285 14.044C145.698 13.3495 144.99 12.7994 144.157 12.398C143.324 11.9925 142.41 11.7917 141.409 11.7877C140.41 11.7837 139.497 11.9844 138.675 12.3819C137.853 12.7834 137.141 13.3254 136.539 14.0159C135.937 14.7065 135.475 15.5376 135.152 16.5092C134.829 17.4808 134.664 18.5246 134.664 19.6407C134.66 20.8091 134.826 21.885 135.156 22.8687C135.486 23.8523 135.945 24.6995 136.532 25.4061C137.119 26.1127 137.824 26.6667 138.645 27.0682C139.467 27.4697 140.377 27.6745 141.376 27.6745C142.374 27.6785 143.287 27.4777 144.109 27.0803C144.931 26.6788 145.643 26.1287 146.245 25.4261C146.847 24.7235 147.313 23.8804 147.65 22.8968C147.988 21.9252 148.157 20.8492 148.157 19.6809Z" fill="white"/>
<path d="M180.263 0C180.381 0.200743 180.487 0.369361 180.579 0.546015C185.055 9.0254 189.525 17.5048 194.016 25.9761C194.284 26.482 194.291 26.8514 194.016 27.3572C193.018 29.18 192.071 31.0308 191.099 32.8737C191.004 33.0543 190.89 33.2229 190.728 33.5C190.578 33.251 190.457 33.0744 190.358 32.8857C186.608 25.7874 182.854 18.6932 179.107 11.5909C178.594 10.6153 178.087 9.63566 177.632 8.62793C176.909 7.04206 176.986 5.44415 177.812 3.93858C178.509 2.66587 179.294 1.44936 180.043 0.208768C180.08 0.140516 180.153 0.100371 180.263 0Z" fill="#FF8B00"/>
<path d="M180.267 33.4399C175.541 24.4306 170.874 15.5457 166.162 6.56852C166.434 6.5364 166.599 6.50428 166.767 6.50027C168.03 6.49625 169.292 6.48421 170.558 6.50027C172.492 6.52435 173.927 7.46383 174.888 9.31066C177.798 14.8833 180.719 20.4478 183.651 26.0044C183.86 26.4019 183.885 26.6909 183.665 27.1004C182.638 29.0035 181.64 30.9266 180.631 32.8377C180.546 32.9942 180.447 33.1468 180.267 33.4399Z" fill="#FF0000"/>
<path d="M201 6.55652C198.64 11.0291 196.347 15.3852 193.995 19.8457C193.837 19.6048 193.72 19.4563 193.628 19.2836C191.988 16.1761 190.344 13.0686 188.714 9.95308C187.808 8.22268 188.7 6.50833 190.516 6.5003C193.797 6.48424 197.081 6.49629 200.361 6.5003C200.53 6.5003 200.699 6.52841 201 6.55652Z" fill="#FFE600"/>
</svg>
